<svg width="24" height="24" viewBox="0 0 24 24" fill="none" xmlns="http://www.w3.org/2000/svg">
<rect width="24" height="24" rx="12" fill="#FC84E1"/>
<g clip-path="url(#clip0_0_1348)">
<mask id="mask0_0_1348" style="mask-type:luminance" maskUnits="userSpaceOnUse" x="4" y="5" width="17" height="16">
<path d="M4.00195 4.99991H20.0019V20.9999H4.00195V4.99991Z" fill="white"/>
</mask>
<g mask="url(#mask0_0_1348)">
<path fill-rule="evenodd" clip-rule="evenodd" d="M6.30875 11.32L9.81242 15.6996L8.36973 11.32H6.30875ZM4.08612 10.5212C3.999 10.0131 4.15414 9.47491 4.54153 9.08752L7.45982 6.16923C7.76649 5.86256 8.18243 5.69027 8.61613 5.69027H15.3892C15.8229 5.69027 16.2388 5.86256 16.5455 6.16923L19.4638 9.08752C20.0529 9.67672 20.1049 10.6147 19.5844 11.2654L13.2796 19.1464C12.6249 19.9647 11.3804 19.9647 10.7257 19.1464L4.42091 11.2654C4.39057 11.2274 4.36217 11.1885 4.33571 11.1488C4.18039 11.0167 4.08186 10.8199 4.08186 10.6C4.08186 10.5734 4.0833 10.5471 4.08612 10.5212ZM5.78551 9.88002H8.39242L9.52465 7.13028H8.61613C8.56434 7.13028 8.51468 7.15086 8.47806 7.18747L5.78551 9.88002ZM9.94973 9.88002L10.943 7.46777C10.9731 7.39461 11.0444 7.34686 11.1235 7.34686H13.1519C13.231 7.34686 13.3023 7.39461 13.3324 7.46777L14.3257 9.88002H9.94973ZM15.883 9.88002L14.7508 7.13028H15.3892C15.4409 7.13028 15.4906 7.15086 15.5272 7.18747L18.2198 9.88002H15.883ZM17.6965 11.32H15.9057L14.6522 15.1255L17.6965 11.32ZM14.3896 11.32H9.88586L11.9523 17.5931C11.9713 17.651 11.9986 17.6783 12.0222 17.6944C12.0504 17.7135 12.0907 17.7273 12.1377 17.7273C12.1848 17.7273 12.225 17.7135 12.2532 17.6944C12.2769 17.6783 12.3041 17.651 12.3232 17.5931L14.3896 11.32Z" fill="white"/>
</g>
</g>
<defs>
<clipPath id="clip0_0_1348">
<rect width="16" height="16" fill="white" transform="translate(4 5)"/>
</clipPath>
</defs>
</svg>
